{
  "accessors": [
    {
      "bufferView": 1,
      "componentType": 5126,
      "count": 14613,
      "max": [
        87.863838195800781,
        103.00968933105469,
        102.37537384033203
      ],
      "min": [
        -104.53871917724609,
        -104.12676239013672,
        -83.255126953125
      ],
      "type": "VEC3"
    },
    {
      "bufferView": 1,
      "byteOffset": 175356,
      "componentType": 5126,
      "count": 14613,
      "max": [
        0.99784886837005615,
        0.99974328279495239,
        0.99999117851257324
      ],
      "min": [
        -0.99967110157012939,
        -0.99979156255722046,
        -0.99985212087631226
      ],
      "type": "VEC3"
    },
    {
      "bufferView": 2,
      "componentType": 5126,
      "count": 14613,
      "max": [
        0.99998354911804199,
        0.99944150447845459,
        0.99984323978424072,
        1
      ],
      "min": [
        -0.99998360872268677,
        -0.9989050030708313,
        -0.99957478046417236,
        1
      ],
      "type": "VEC4"
    },
    {
      "bufferView": 2,
      "byteOffset": 233808,
      "componentType": 5126,
      "count": 14613,
      "max": [
        1,
        1,
        1,
        1
      ],
      "min": [
        1,
        1,
        1,
        1
      ],
      "type": "VEC4"
    },
    {
      "bufferView": 0,
      "componentType": 5125,
      "count": 14613,
      "max": [
        14612
      ],
      "min": [
        0
      ],
      "type": "SCALAR"
    },
    {
      "bufferView": 1,
      "byteOffset": 350712,
      "componentType": 5126,
      "count": 720,
      "max": [
        101.64578247070312,
        103.0677490234375,
        102.68953704833984
      ],
      "min": [
        -102.94007110595703,
        -103.76998138427734,
        -103.47417449951172
      ],
      "type": "VEC3"
    },
    {
      "bufferView": 1,
      "byteOffset": 359352,
      "componentType": 5126,
      "count": 720,
      "max": [
        0.99988001585006714,
        0.99519413709640503,
        0.99876511096954346
      ],
      "min": [
        -0.99715310335159302,
        -0.98756647109985352,
        -0.99080461263656616
      ],
      "type": "VEC3"
    },
    {
      "bufferView": 2,
      "byteOffset": 467616,
      "componentType": 5126,
      "count": 720,
      "max": [
        0.99964451789855957,
        0.98948484659194946,
        0.67157953977584839,
        1
      ],
      "min": [
        -0.99027335643768311,
        -0.98953026533126831,
        -0.99864935874938965,
        1
      ],
      "type": "VEC4"
    },
    {
      "bufferView": 2,
      "byteOffset": 479136,
      "componentType": 5126,
      "count": 720,
      "max": [
        1,
        1,
        1,
        1
      ],
      "min": [
        1,
        1,
        1,
        1
      ],
      "type": "VEC4"
    },
    {
      "bufferView": 0,
      "byteOffset": 58452,
      "componentType": 5125,
      "count": 720,
      "max": [
        719
      ],
      "min": [
        0
      ],
      "type": "SCALAR"
    }
  ],
  "asset": {
    "extras": {
      "author": "lolla (https://sketchfab.com/lolla)",
      "license": "CC-BY-4.0 (http://creativecommons.org/licenses/by/4.0/)",
      "source": "https://sketchfab.com/models/de87831832bf479cb9df831e497363b5",
      "title": "Low+ Poly+ Earth+V2"
    },
    "generator": "Sketchfab-3.18.6",
    "version": "2.0"
  },
  "bufferViews": [
    {
      "buffer": 0,
      "byteLength": 61332,
      "byteOffset": 0,
      "name": "floatBufferViews",
      "target": 34963
    },
    {
      "buffer": 0,
      "byteLength": 367992,
      "byteOffset": 61332,
      "byteStride": 12,
      "name": "floatBufferViews",
      "target": 34962
    },
    {
      "buffer": 0,
      "byteLength": 490656,
      "byteOffset": 429324,
      "byteStride": 16,
      "name": "floatBufferViews",
      "target": 34962
    }
  ],
  "buffers": [
    {
      "byteLength": 919980,
      "uri": "scene.bin"
    }
  ],
  "materials": [
    {
      "doubleSided": true,
      "emissiveFactor": [
        0,
        0,
        0
      ],
      "name": "Oceans",
      "pbrMetallicRoughness": {
        "baseColorFactor": [
          0.17080699999999999,
          0.56024799999999997,
          0.78571400000000002,
          1
        ],
        "metallicFactor": 0,
        "roughnessFactor": 0.59999999999999998
      }
    },
    {
      "doubleSided": true,
      "emissiveFactor": [
        0,
        0,
        0
      ],
      "name": "Land_Masses",
      "pbrMetallicRoughness": {
        "baseColorFactor": [
          0.33924500000000002,
          0.67346899999999998,
          0.24679899999999999,
          1
        ],
        "metallicFactor": 0,
        "roughnessFactor": 0.59999999999999998
      }
    }
  ],
  "meshes": [
    {
      "primitives": [
        {
          "attributes": {
            "COLOR_0": 3,
            "NORMAL": 1,
            "POSITION": 0,
            "TANGENT": 2
          },
          "indices": 4,
          "material": 1,
          "mode": 4
        }
      ]
    },
    {
      "primitives": [
        {
          "attributes": {
            "COLOR_0": 8,
            "NORMAL": 6,
            "POSITION": 5,
            "TANGENT": 7
          },
          "indices": 9,
          "material": 0,
          "mode": 4
        }
      ]
    }
  ],
  "nodes": [
    {
      "children": [
        1
      ],
      "name": "RootNode (gltf orientation matrix)",
      "rotation": [
        -0.70710678118654746,
        -0,
        -0,
        0.70710678118654757
      ]
    },
    {
      "children": [
        2
      ],
      "matrix": [
        0.97886347770690918,
        0.20451490581035614,
        0,
        0,
        -0.20451490581035614,
        0.97886347770690918,
        0,
        0,
        0,
        0,
        1,
        0,
        -0.13893865048885345,
        0.28467154502868652,
        0,
        1
      ],
      "name": "RootNode (model correction matrix)"
    },
    {
      "children": [
        3,
        6
      ],
      "name": "Earth"
    },
    {
      "children": [
        4
      ],
      "name": "Land_Masse"
    },
    {
      "children": [
        5
      ],
      "matrix": [
        0.99999999999999978,
        -0,
        1.4901161193847653e-08,
        0,
        0,
        1,
        -0,
        0,
        -1.4901161193847653e-08,
        0,
        0.99999999999999978,
        0,
        -0,
        -0,
        -0,
        1
      ],
      "name": "3DSMeshMatrix"
    },
    {
      "mesh": 0,
      "name": ""
    },
    {
      "children": [
        7
      ],
      "matrix": [
        0.95765417814254761,
        0.28792095184326172,
        0,
        0,
        -0.27625954151153564,
        0.91886717081069946,
        0.28171589970588684,
        0,
        0.081111900508403778,
        -0.26978638768196106,
        0.95949786901473999,
        0,
        0,
        0,
        0,
        1
      ],
      "name": "Oceans"
    },
    {
      "children": [
        8
      ],
      "matrix": [
        0.95765417951786247,
        -0.27625953021220678,
        0.081111912857790791,
        0,
        0.28792094926865086,
        0.91886712545868932,
        -0.26978637037674119,
        0,
        -1.2464351509255955e-08,
        0.281715875471854,
        0.95949787571822021,
        0,
        -0,
        -0,
        -0,
        1
      ],
      "name": "3DSMeshMatrix"
    },
    {
      "mesh": 1,
      "name": ""
    }
  ],
  "scene": 0,
  "scenes": [
    {
      "name": "OSG_Scene",
      "nodes": [
        0
      ]
    }
  ]
}

