<svg width="162" height="24" viewBox="0 0 162 24" fill="none" xmlns="http://www.w3.org/2000/svg">
<path id="Mahameru" d="M0.992 2.2H4.88V19H0.992V2.2ZM16.451 5.896C18.051 5.896 19.339 6.376 20.315 7.336C21.307 8.296 21.803 9.72 21.803 11.608V19H18.059V12.184C18.059 11.16 17.835 10.4 17.387 9.904C16.939 9.392 16.291 9.136 15.443 9.136C14.499 9.136 13.747 9.432 13.187 10.024C12.627 10.6 12.347 11.464 12.347 12.616V19H8.603V6.088H12.179V7.6C12.675 7.056 13.291 6.64 14.027 6.352C14.763 6.048 15.571 5.896 16.451 5.896ZM33.5248 18.376C33.1568 18.648 32.7008 18.856 32.1568 19C31.6288 19.128 31.0688 19.192 30.4768 19.192C28.9408 19.192 27.7488 18.8 26.9008 18.016C26.0688 17.232 25.6528 16.08 25.6528 14.56V9.256H23.6608V6.376H25.6528V3.232H29.3968V6.376H32.6128V9.256H29.3968V14.512C29.3968 15.056 29.5328 15.48 29.8047 15.784C30.0928 16.072 30.4928 16.216 31.0048 16.216C31.5968 16.216 32.1008 16.056 32.5168 15.736L33.5248 18.376ZM47.876 12.592C47.876 12.64 47.852 12.976 47.804 13.6H38.036C38.212 14.4 38.628 15.032 39.284 15.496C39.94 15.96 40.756 16.192 41.732 16.192C42.404 16.192 42.996 16.096 43.508 15.904C44.036 15.696 44.524 15.376 44.972 14.944L46.964 17.104C45.748 18.496 43.972 19.192 41.636 19.192C40.18 19.192 38.892 18.912 37.772 18.352C36.652 17.776 35.788 16.984 35.18 15.976C34.572 14.968 34.268 13.824 34.268 12.544C34.268 11.28 34.564 10.144 35.156 9.136C35.764 8.112 36.588 7.32 37.628 6.76C38.684 6.184 39.86 5.896 41.156 5.896C42.42 5.896 43.564 6.168 44.588 6.712C45.612 7.256 46.412 8.04 46.988 9.064C47.58 10.072 47.876 11.248 47.876 12.592ZM41.18 8.728C40.332 8.728 39.62 8.968 39.044 9.448C38.468 9.928 38.116 10.584 37.988 11.416H44.348C44.22 10.6 43.868 9.952 43.292 9.472C42.716 8.976 42.012 8.728 41.18 8.728ZM53.9446 7.792C54.3926 7.168 54.9926 6.696 55.7446 6.376C56.5126 6.056 57.3926 5.896 58.3846 5.896V9.352C57.9686 9.32 57.6886 9.304 57.5446 9.304C56.4726 9.304 55.6326 9.608 55.0246 10.216C54.4166 10.808 54.1126 11.704 54.1126 12.904V19H50.3686V6.088H53.9446V7.792ZM68.4588 5.896C70.0588 5.896 71.3468 6.376 72.3228 7.336C73.3148 8.296 73.8108 9.72 73.8108 11.608V19H70.0668V12.184C70.0668 11.16 69.8428 10.4 69.3948 9.904C68.9468 9.392 68.2988 9.136 67.4508 9.136C66.5068 9.136 65.7548 9.432 65.1948 10.024C64.6348 10.6 64.3548 11.464 64.3548 12.616V19H60.6108V6.088H64.1868V7.6C64.6828 7.056 65.2988 6.64 66.0348 6.352C66.7708 6.048 67.5788 5.896 68.4588 5.896ZM89.9932 12.592C89.9932 12.64 89.9692 12.976 89.9212 13.6H80.1532C80.3292 14.4 80.7452 15.032 81.4012 15.496C82.0572 15.96 82.8732 16.192 83.8492 16.192C84.5212 16.192 85.1132 16.096 85.6252 15.904C86.1532 15.696 86.6412 15.376 87.0892 14.944L89.0812 17.104C87.8652 18.496 86.0892 19.192 83.7532 19.192C82.2972 19.192 81.0092 18.912 79.8892 18.352C78.7692 17.776 77.9052 16.984 77.2972 15.976C76.6892 14.968 76.3852 13.824 76.3852 12.544C76.3852 11.28 76.6812 10.144 77.2732 9.136C77.8812 8.112 78.7052 7.32 79.7452 6.76C80.8012 6.184 81.9772 5.896 83.2732 5.896C84.5372 5.896 85.6812 6.168 86.7052 6.712C87.7292 7.256 88.5292 8.04 89.1052 9.064C89.6972 10.072 89.9932 11.248 89.9932 12.592ZM83.2972 8.728C82.4492 8.728 81.7372 8.968 81.1612 9.448C80.5852 9.928 80.2332 10.584 80.1052 11.416H86.4652C86.3372 10.6 85.9852 9.952 85.4092 9.472C84.8332 8.976 84.1292 8.728 83.2972 8.728ZM100.814 18.376C100.446 18.648 99.9898 18.856 99.4458 19C98.9178 19.128 98.3578 19.192 97.7658 19.192C96.2298 19.192 95.0378 18.8 94.1898 18.016C93.3578 17.232 92.9418 16.08 92.9418 14.56V9.256H90.9498V6.376H92.9418V3.232H96.6858V6.376H99.9018V9.256H96.6858V14.512C96.6858 15.056 96.8218 15.48 97.0938 15.784C97.3818 16.072 97.7818 16.216 98.2938 16.216C98.8858 16.216 99.3898 16.056 99.8058 15.736L100.814 18.376ZM108.661 19.192C107.301 19.192 106.077 18.912 104.989 18.352C103.917 17.776 103.077 16.984 102.469 15.976C101.861 14.968 101.557 13.824 101.557 12.544C101.557 11.264 101.861 10.12 102.469 9.112C103.077 8.104 103.917 7.32 104.989 6.76C106.077 6.184 107.301 5.896 108.661 5.896C110.021 5.896 111.237 6.184 112.309 6.76C113.381 7.32 114.221 8.104 114.829 9.112C115.437 10.12 115.741 11.264 115.741 12.544C115.741 13.824 115.437 14.968 114.829 15.976C114.221 16.984 113.381 17.776 112.309 18.352C111.237 18.912 110.021 19.192 108.661 19.192ZM108.661 16.12C109.621 16.12 110.405 15.8 111.013 15.16C111.637 14.504 111.949 13.632 111.949 12.544C111.949 11.456 111.637 10.592 111.013 9.952C110.405 9.296 109.621 8.968 108.661 8.968C107.701 8.968 106.909 9.296 106.285 9.952C105.661 10.592 105.349 11.456 105.349 12.544C105.349 13.632 105.661 14.504 106.285 15.16C106.909 15.8 107.701 16.12 108.661 16.12ZM125.876 5.896C127.076 5.896 128.164 6.176 129.14 6.736C130.132 7.28 130.908 8.056 131.468 9.064C132.028 10.056 132.308 11.216 132.308 12.544C132.308 13.872 132.028 15.04 131.468 16.048C130.908 17.04 130.132 17.816 129.14 18.376C128.164 18.92 127.076 19.192 125.876 19.192C124.228 19.192 122.932 18.672 121.988 17.632V23.656H118.244V6.088H121.82V7.576C122.748 6.456 124.1 5.896 125.876 5.896ZM125.228 16.12C126.188 16.12 126.972 15.8 127.58 15.16C128.204 14.504 128.516 13.632 128.516 12.544C128.516 11.456 128.204 10.592 127.58 9.952C126.972 9.296 126.188 8.968 125.228 8.968C124.268 8.968 123.476 9.296 122.852 9.952C122.244 10.592 121.94 11.456 121.94 12.544C121.94 13.632 122.244 14.504 122.852 15.16C123.476 15.8 124.268 16.12 125.228 16.12ZM140.958 19.192C139.598 19.192 138.374 18.912 137.286 18.352C136.214 17.776 135.374 16.984 134.766 15.976C134.158 14.968 133.854 13.824 133.854 12.544C133.854 11.264 134.158 10.12 134.766 9.112C135.374 8.104 136.214 7.32 137.286 6.76C138.374 6.184 139.598 5.896 140.958 5.896C142.318 5.896 143.534 6.184 144.606 6.76C145.678 7.32 146.518 8.104 147.126 9.112C147.734 10.12 148.038 11.264 148.038 12.544C148.038 13.824 147.734 14.968 147.126 15.976C146.518 16.984 145.678 17.776 144.606 18.352C143.534 18.912 142.318 19.192 140.958 19.192ZM140.958 16.12C141.918 16.12 142.702 15.8 143.31 15.16C143.934 14.504 144.246 13.632 144.246 12.544C144.246 11.456 143.934 10.592 143.31 9.952C142.702 9.296 141.918 8.968 140.958 8.968C139.998 8.968 139.206 9.296 138.582 9.952C137.958 10.592 137.646 11.456 137.646 12.544C137.646 13.632 137.958 14.504 138.582 15.16C139.206 15.8 139.998 16.12 140.958 16.12ZM150.541 1.192H154.285V19H150.541V1.192ZM157.759 6.088H161.503V19H157.759V6.088ZM159.631 4.288C158.943 4.288 158.383 4.088 157.951 3.688C157.519 3.288 157.303 2.792 157.303 2.2C157.303 1.608 157.519 1.112 157.951 0.711999C158.383 0.311999 158.943 0.111999 159.631 0.111999C160.319 0.111999 160.879 0.303999 161.311 0.688C161.743 1.072 161.959 1.552 161.959 2.128C161.959 2.752 161.743 3.272 161.311 3.688C160.879 4.088 160.319 4.288 159.631 4.288Z" fill="#151828"/>
</svg>
